<svg width="15" height="15" viewBox="0 0 15 15" fill="none" xmlns="http://www.w3.org/2000/svg">
<g clip-path="url(#clip0_22004_3346)">
<path d="M6.81893 1.74176C6.84545 1.59978 6.9208 1.47154 7.03191 1.37925C7.14303 1.28697 7.28292 1.23645 7.42737 1.23645C7.57181 1.23645 7.7117 1.28697 7.82282 1.37925C7.93393 1.47154 8.00928 1.59978 8.0358 1.74176L8.68632 5.18192C8.73252 5.4265 8.85138 5.65147 9.02738 5.82747C9.20339 6.00347 9.42836 6.12233 9.67294 6.16853L13.1131 6.81905C13.2551 6.84557 13.3833 6.92092 13.4756 7.03204C13.5679 7.14315 13.6184 7.28305 13.6184 7.42749C13.6184 7.57193 13.5679 7.71182 13.4756 7.82294C13.3833 7.93406 13.2551 8.0094 13.1131 8.03592L9.67294 8.68644C9.42836 8.73265 9.20339 8.8515 9.02738 9.02751C8.85138 9.20351 8.73252 9.42848 8.68632 9.67306L8.0358 13.1132C8.00928 13.2552 7.93393 13.3834 7.82282 13.4757C7.7117 13.568 7.57181 13.6185 7.42737 13.6185C7.28292 13.6185 7.14303 13.568 7.03191 13.4757C6.9208 13.3834 6.84545 13.2552 6.81893 13.1132L6.16841 9.67306C6.12221 9.42848 6.00335 9.20351 5.82735 9.02751C5.65134 8.8515 5.42637 8.73265 5.18179 8.68644L1.74164 8.03592C1.59965 8.0094 1.47141 7.93406 1.37913 7.82294C1.28684 7.71182 1.23633 7.57193 1.23633 7.42749C1.23633 7.28305 1.28684 7.14315 1.37913 7.03204C1.47141 6.92092 1.59965 6.84557 1.74164 6.81905L5.18179 6.16853C5.42637 6.12233 5.65134 6.00347 5.82735 5.82747C6.00335 5.65147 6.12221 5.4265 6.16841 5.18192L6.81893 1.74176Z" stroke="white" stroke-width="1.23791" stroke-linecap="round" stroke-linejoin="round"/>
<path d="M12.3789 1.23792V3.71374" stroke="white" stroke-width="1.23791" stroke-linecap="round" stroke-linejoin="round"/>
<path d="M13.6174 2.47583H11.1416" stroke="white" stroke-width="1.23791" stroke-linecap="round" stroke-linejoin="round"/>
<path d="M2.47619 13.6171C3.15987 13.6171 3.7141 13.0628 3.7141 12.3791C3.7141 11.6955 3.15987 11.1412 2.47619 11.1412C1.79251 11.1412 1.23828 11.6955 1.23828 12.3791C1.23828 13.0628 1.79251 13.6171 2.47619 13.6171Z" stroke="white" stroke-width="1.23791" stroke-linecap="round" stroke-linejoin="round"/>
</g>
<defs>
<clipPath id="clip0_22004_3346">
<rect width="14.8549" height="14.8549" fill="white"/>
</clipPath>
</defs>
</svg>
