<svg width="32" height="32" viewBox="0 0 32 32" fill="none" xmlns="http://www.w3.org/2000/svg">
<rect width="32" height="32" rx="16" fill="#2D6FF8"/>
<path d="M16 20.6423V10.5842" stroke="white" stroke-width="1.54739" stroke-linecap="round" stroke-linejoin="round"/>
<path d="M18.3209 16.7737C17.6515 16.5781 17.0635 16.1707 16.6451 15.6128C16.2266 15.0549 16.0002 14.3764 15.9998 13.679C15.9994 14.3764 15.773 15.0549 15.3545 15.6128C14.9361 16.1707 14.3481 16.5781 13.6787 16.7737" stroke="white" stroke-width="1.54739" stroke-linecap="round" stroke-linejoin="round"/>
<path d="M20.3317 11.7448C20.5097 11.4365 20.6145 11.0913 20.6378 10.736C20.6611 10.3808 20.6023 10.0249 20.4661 9.69596C20.3298 9.36703 20.1197 9.07384 19.8521 8.83909C19.5844 8.60433 19.2663 8.4343 18.9224 8.34215C18.5785 8.25 18.218 8.2382 17.8688 8.30766C17.5196 8.37713 17.1911 8.52599 16.9086 8.74273C16.6262 8.95948 16.3974 9.2383 16.2399 9.55762C16.0824 9.87695 16.0005 10.2282 16.0006 10.5842C16.0006 10.2282 15.9187 9.87695 15.7612 9.55762C15.6038 9.2383 15.375 8.95948 15.0925 8.74273C14.81 8.52599 14.4815 8.37713 14.1323 8.30766C13.7831 8.2382 13.4226 8.25 13.0787 8.34215C12.7348 8.4343 12.4167 8.60433 12.1491 8.83909C11.8814 9.07384 11.6713 9.36703 11.5351 9.69596C11.3988 10.0249 11.3401 10.3808 11.3634 10.736C11.3867 11.0913 11.4914 11.4365 11.6694 11.7448" stroke="white" stroke-width="1.54739" stroke-linecap="round" stroke-linejoin="round"/>
<path d="M20.6396 10.6809C21.0944 10.7978 21.5166 11.0167 21.8743 11.321C22.2319 11.6253 22.5157 12.0069 22.704 12.4371C22.8923 12.8672 22.9803 13.3346 22.9612 13.8038C22.9421 14.273 22.8166 14.7317 22.594 15.1451" stroke="white" stroke-width="1.54739" stroke-linecap="round" stroke-linejoin="round"/>
<path d="M20.6426 20.6422C21.3238 20.6421 21.986 20.4173 22.5265 20.0026C23.0669 19.5879 23.4554 19.0064 23.6318 18.3484C23.8081 17.6904 23.7624 16.9925 23.5017 16.3631C23.241 15.7338 22.7799 15.208 22.19 14.8673" stroke="white" stroke-width="1.54739" stroke-linecap="round" stroke-linejoin="round"/>
<path d="M22.1641 20.2422C22.2183 20.6617 22.186 21.0879 22.069 21.4944C21.9521 21.901 21.7531 22.2792 21.4842 22.6058C21.2154 22.9324 20.8824 23.2004 20.5059 23.3933C20.1294 23.5861 19.7174 23.6998 19.2953 23.7272C18.8732 23.7546 18.4499 23.6951 18.0516 23.5525C17.6534 23.4099 17.2886 23.1872 16.9798 22.8981C16.671 22.609 16.4247 22.2596 16.2562 21.8716C16.0877 21.4836 16.0006 21.0652 16.0001 20.6422C15.9996 21.0652 15.9125 21.4836 15.744 21.8716C15.5755 22.2596 15.3292 22.609 15.0204 22.8981C14.7116 23.1872 14.3468 23.4099 13.9486 23.5525C13.5503 23.6951 13.127 23.7546 12.7049 23.7272C12.2828 23.6998 11.8708 23.5861 11.4943 23.3933C11.1178 23.2004 10.7848 22.9324 10.516 22.6058C10.2471 22.2792 10.0481 21.901 9.93115 21.4944C9.81421 21.0879 9.78185 20.6617 9.83608 20.2422" stroke="white" stroke-width="1.54739" stroke-linecap="round" stroke-linejoin="round"/>
<path d="M11.3583 20.6422C10.6771 20.6421 10.0149 20.4173 9.47442 20.0026C8.93396 19.5879 8.54545 19.0064 8.36913 18.3484C8.19281 17.6904 8.23853 16.9925 8.49922 16.3631C8.7599 15.7338 9.22097 15.208 9.81093 14.8673" stroke="white" stroke-width="1.54739" stroke-linecap="round" stroke-linejoin="round"/>
<path d="M11.3602 10.6809C10.9055 10.7978 10.4833 11.0167 10.1256 11.321C9.76794 11.6253 9.48421 12.0069 9.2959 12.4371C9.10759 12.8672 9.01963 13.3346 9.03868 13.8038C9.05774 14.273 9.18331 14.7317 9.40589 15.1451" stroke="white" stroke-width="1.54739" stroke-linecap="round" stroke-linejoin="round"/>
</svg>
