<svg width="16" height="16" viewBox="0 0 16 16" fill="none" xmlns="http://www.w3.org/2000/svg">
<path d="M3.33301 3.33324C3.33294 3.09863 3.39477 2.86816 3.51226 2.6651C3.62976 2.46204 3.79875 2.29357 4.00218 2.1767C4.2056 2.05984 4.43626 1.99872 4.67087 1.99952C4.90547 2.00032 5.13571 2.063 5.33834 2.18124L13.3363 6.84657C13.5382 6.96369 13.7058 7.13174 13.8223 7.33391C13.9389 7.53608 14.0003 7.7653 14.0005 7.99867C14.0007 8.23203 13.9397 8.46135 13.8235 8.66373C13.7073 8.8661 13.54 9.03444 13.3383 9.15191L5.33834 13.8186C5.13571 13.9368 4.90547 13.9995 4.67087 14.0003C4.43626 14.0011 4.2056 13.94 4.00218 13.8231C3.79875 13.7062 3.62976 13.5378 3.51226 13.3347C3.39477 13.1316 3.33294 12.9012 3.33301 12.6666V3.33324Z" stroke="#00A63E" stroke-width="1.33333" stroke-linecap="round" stroke-linejoin="round"/>
</svg>
